
<svg xmlns="http://www.w3.org/2000/svg" viewBox="0 0 512 512" width="512" height="512">
  <defs>
    <!-- Deep Navy/Sapphire Background Gradient -->
    <linearGradient id="bgGrad" x1="0%" y1="0%" x2="100%" y2="100%">
      <stop offset="0%" stop-color="#0F172A" />
      <stop offset="50%" stop-color="#0A1F44" />
      <stop offset="100%" stop-color="#030712" />
    </linearGradient>

    <!-- Capital G Vibrant Royal-to-Cyan Blue Gradient -->
    <linearGradient id="gBlueGrad" x1="0%" y1="0%" x2="100%" y2="100%">
      <stop offset="0%" stop-color="#60A5FA" />
      <stop offset="45%" stop-color="#3B82F6" />
      <stop offset="100%" stop-color="#1D4ED8" />
    </linearGradient>

    <!-- Tractor Blue Accent Gradient -->
    <linearGradient id="tractorBlueGrad" x1="0%" y1="0%" x2="100%" y2="100%">
      <stop offset="0%" stop-color="#93C5FD" />
      <stop offset="100%" stop-color="#3B82F6" />
    </linearGradient>

    <!-- Shadow -->
    <filter id="mainShadow" x="-20%" y="-20%" width="140%" height="140%">
      <feDropShadow dx="0" dy="12" stdDeviation="14" flood-color="#000000" flood-opacity="0.6" />
    </filter>

    <filter id="subtleGlow" x="-30%" y="-30%" width="160%" height="160%">
      <feGaussianBlur stdDeviation="18" result="blur" />
      <feComposite in="SourceGraphic" in2="blur" operator="over" />
    </filter>
  </defs>

  <!-- App Rounded Squircle Base -->
  <rect width="512" height="512" rx="114" fill="url(#bgGrad)" />

  <!-- Subtle Outer Accent Ring in Blue -->
  <rect x="14" y="14" width="484" height="484" rx="102" fill="none" stroke="#3B82F6" stroke-width="3" stroke-opacity="0.3" />

  <!-- Ambient Blue Backlight behind the G -->
  <circle cx="256" cy="236" r="170" fill="#3B82F6" opacity="0.12" filter="url(#subtleGlow)" />

  <!-- The Capital 'G' + Tractor Composition -->
  <g filter="url(#mainShadow)">
    <!-- Pure Clean Capital 'G' Shape in Vibrant Blue -->
    <path d="
      M 382 126
      A 175 175 0 1 0 431 245
      L 431 240
      L 265 240
      L 265 304
      L 367 304
      A 111 111 0 1 1 334 162
      L 370 120
      A 175 175 0 0 0 382 126
      Z
    " fill="url(#gBlueGrad)" fill-rule="evenodd" />

    <!-- TRACTOR VISUAL in Crisp White with Electric Blue Hubs and Chassis -->
    <g transform="translate(148, 175) scale(2.05)">
      <!-- Rounded Tractor Body Shell -->
      <path d="M 45 42
               L 80 42
               A 6 6 0 0 1 86 48
               L 86 63
               A 5 5 0 0 1 81 68
               L 74 68
               A 4 4 0 0 1 70 64
               L 70 57
               A 6 6 0 0 0 64 51
               L 52 51
               A 8 8 0 0 0 44 59
               L 44 64
               A 4 4 0 0 1 40 68
               L 36 68
               A 4 4 0 0 1 32 64
               L 32 59
               A 16 16 0 0 1 45 42 Z"
            fill="#FFFFFF" />

      <!-- Horizontal Seat Cushion -->
      <rect x="23" y="39" width="18" height="6" rx="3" fill="#FFFFFF" />

      <!-- Slanted Steering Column & Wheel -->
      <line x1="56" y1="44" x2="47" y2="31" stroke="#FFFFFF" stroke-width="4.5" stroke-linecap="round" />
      <line x1="43" y1="28" x2="54" y2="36" stroke="#FFFFFF" stroke-width="4.5" stroke-linecap="round" />

      <!-- Big Rear Wheel with Deep Blue Tire and Brilliant Blue Hub -->
      <circle cx="37" cy="65" r="17" fill="#0A1F44" stroke="#FFFFFF" stroke-width="6.5" />
      <circle cx="37" cy="65" r="6.5" fill="#3B82F6" />

      <!-- Small Front Wheel with Deep Blue Tire and Brilliant Blue Hub -->
      <circle cx="82" cy="69" r="12" fill="#0A1F44" stroke="#FFFFFF" stroke-width="5.5" />
      <circle cx="82" cy="69" r="4.5" fill="#3B82F6" />
    </g>
  </g>

  <!-- GoMate Brand Baseline Tag -->
  <g transform="translate(256, 452)">
    <text text-anchor="middle" 
          font-family="system-ui, -apple-system, 'Inter', 'Segoe UI', Roboto, sans-serif" 
          font-size="34" 
          font-weight="900" 
          letter-spacing="4" 
          fill="#FFFFFF">GO<tspan fill="#60A5FA">MATE</tspan></text>
  </g>
</svg>
